<svg xmlns="http://www.w3.org/2000/svg" viewBox="0 0 36.04 80.51"><defs><style>.cls-1{fill:#fff;}</style></defs><title>arrow</title><g id="Layer_2" data-name="Layer 2"><g id="Home"><path class="cls-1" d="M35.36,79a32.12,32.12,0,0,1-5.44,1L27,80.32a9.62,9.62,0,0,1-2.93.11.63.63,0,0,1-.19-1.13,9.43,9.43,0,0,1,2.69-.69c.95-.16,1.91-.3,2.87-.45l2.16-.34a22.43,22.43,0,0,1-6.09-2.89,47.1,47.1,0,0,1-7.29-6A61.23,61.23,0,0,1,.32,19,58.68,58.68,0,0,1,2.07,9.53,38.57,38.57,0,0,1,5.57.34C5.94-.3,7.11,0,6.85.8,6,3.47,5,6.08,4.18,8.78a63.39,63.39,0,0,0-1.72,8.28,60,60,0,0,0,0,16.71,59.72,59.72,0,0,0,15.37,32,52.4,52.4,0,0,0,7.57,6.78A23.13,23.13,0,0,0,32.29,76c-.3-.48-.59-1-.86-1.49a20.77,20.77,0,0,1-1.07-2.41A9.15,9.15,0,0,1,30,71a1.88,1.88,0,0,1,.15-1.34.7.7,0,0,1,1.08-.2,1.94,1.94,0,0,1,.7.94c.15.37.28.74.41,1.11a18.23,18.23,0,0,0,.87,2,19.38,19.38,0,0,0,2.51,3.82A1,1,0,0,1,35.36,79Z"/></g></g></svg>
