<?xml version="1.0" encoding="utf-8"?>
<!-- Generator: Adobe Illustrator 24.0.0, SVG Export Plug-In . SVG Version: 6.00 Build 0)  -->
<svg version="1.1" id="Layer_1" xmlns="http://www.w3.org/2000/svg" xmlns:xlink="http://www.w3.org/1999/xlink" x="0px" y="0px"
	 viewBox="0 0 840 186" style="enable-background:new 0 0 840 186;" xml:space="preserve">
<style type="text/css">
	.st0{fill:#404041;}
	.st1{fill:none;}
	.st2{fill:#6CBD45;}
	.st3{fill:#72A1D6;}
</style>
<g>
	<g>
		<path class="st0" d="M114.5,62.4c0,1.5-1.3,2.8-2.8,2.8H94.3c-1.5,0-2.8,1.3-2.8,2.8v63.3c0,1.5-1.3,2.8-2.8,2.8H77.6
			c-1.5,0-2.8-1.3-2.8-2.8V68c0-1.5-1.3-2.8-2.8-2.8H54.8c-1.5,0-2.8-1.3-2.8-2.8V52c0-1.5,1.3-2.8,2.8-2.8h56.9
			c1.5,0,2.8,1.3,2.8,2.8V62.4z"/>
	</g>
</g>
<g>
	<g>
		<path class="st0" d="M173.5,118c1.5,0,2.8,1.3,2.8,2.8v10.4c0,1.5-1.3,2.8-2.8,2.8h-46.9c-1.5,0-2.8-1.3-2.8-2.8V52
			c0-1.5,1.3-2.8,2.8-2.8h46.3c1.5,0,2.8,1.3,2.8,2.8v10.4c0,1.5-1.3,2.8-2.8,2.8h-29.6c-1.5,0-2.8,1.3-2.8,2.8v12.5
			c0,1.5,1.3,2.8,2.8,2.8h26.5c1.5,0,2.8,1.3,2.8,2.8v10.2c0,1.5-1.3,2.8-2.8,2.8h-26.5c-1.5,0-2.8,1.3-2.8,2.8v13.4
			c0,1.5,1.3,2.8,2.8,2.8H173.5z"/>
	</g>
</g>
<g>
	<g>
		<path class="st0" d="M231.6,118c1.5,0,2.8,1.3,2.8,2.8v10.4c0,1.5-1.3,2.8-2.8,2.8h-43.5c-1.5,0-2.8-1.3-2.8-2.8V52
			c0-1.5,1.3-2.8,2.8-2.8h11.1c1.5,0,2.8,1.3,2.8,2.8v63.3c0,1.5,1.3,2.8,2.8,2.8H231.6z"/>
	</g>
</g>
<path class="st0" d="M324.9,113.5l9.6-5.6c1.4-0.8,3.1-0.3,3.9,1.2c3.3,6.3,9,10.3,18.3,10.3c10.1,0,13.6-4.2,13.6-9
	c0-6.3-5.7-8.7-18.3-12.4c-13-3.8-25.6-9.2-25.6-25.3c0-16,13.3-25.2,27.9-25.2c12.9,0,23,6.2,29,16.5c0.8,1.4,0.4,3.1-1,3.9
	l-9.2,5.3c-1.3,0.8-3,0.3-3.8-1c-3-5.1-7.5-8.5-15-8.5c-7,0-11.2,3.6-11.2,8.5c0,5.2,3.3,8,16.1,11.9c13.5,4.2,27.8,8.7,27.8,26.1
	c0,15.9-12.7,25.6-30.8,25.6c-16.3,0-27.3-7.4-32.4-18.7C323.1,115.7,323.7,114.2,324.9,113.5z"/>
<path class="st1" d="M260.7,94.7c0,0,0.2,0,0.3,0C260.9,94.7,260.7,94.7,260.7,94.7z"/>
<path class="st2" d="M283.7,101.7c-4.4-0.6-8.6-2.3-12.7-3.9c-2.1-0.8-4.1-1.6-6.3-2.2c-1.1-0.3-2.2-0.6-3.3-0.8c0,0-0.2,0-0.3-0.1
	c-0.6,0-1.1-0.1-1.7-0.1c-0.6,0-1.1,0-1.7,0c-0.3,0-1.1,0.2-1.4,0.1c-0.1,0-0.2,0-0.3,0.1c-0.5,0.1-1,0.2-1.6,0.4
	c-0.5,0.1-1,0.3-1.4,0.5c-0.1,0-0.2,0.1-0.4,0.2c1.6,13.2,10.9,22.8,24.6,22.8c13.1,0,22.2-8.7,24.5-20.9c-1,0.7-1.8,1.3-2.4,1.6
	C294.4,102,289.2,102.5,283.7,101.7z"/>
<path class="st3" d="M277.3,64.7c-12,0-20.6,7.3-23.7,18c1.8-0.3,3.6-0.4,5.6-0.3c9.3,0.4,17.1,5.5,26.1,7.2c0.1,0,0.3,0.1,0.6,0.1
	c0,0,0.1,0,0.2,0c0.5,0,1,0.1,1.5,0.1c0.6,0,1.1,0,1.7,0c0.2,0,0.5,0,0.7,0c0.8,0-0.5,0.1-0.4,0.1c0.3,0.1,1.3-0.2,1.7-0.3
	c0.5-0.1,1-0.3,1.5-0.5c0,0,0,0,0,0c0,0,0,0,0.1,0c0.4-0.2,0.9-0.5,1.3-0.7c0.4-0.3,0.9-0.5,1.3-0.8c0.1-0.1,0.2-0.1,0.3-0.2
	c0.5-0.6,1.5-1.2,2.1-1.7c0.4-0.4,1.6-1.6,3.3-3.2C297.8,71.9,289.2,64.7,277.3,64.7z"/>
<path class="st1" d="M285.9,89.7C285.9,89.8,286,89.8,285.9,89.7C286,89.8,285.9,89.8,285.9,89.7z"/>
<path class="st1" d="M252.7,95.9C252.7,95.9,252.7,95.9,252.7,95.9C252.7,95.9,252.7,95.8,252.7,95.9
	C252.7,95.8,252.7,95.9,252.7,95.9z"/>
<path class="st0" d="M277.3,64.7c11.9,0,20.5,7.2,23.7,17.7c4.5-4.4,12.1-11.9,13.4-13.2c-7.3-12.3-20.7-20-37.1-20
	c-24.8,0-42.9,17.8-42.9,42.6c0,0.1,0,0.2,0,0.3c4.2-3.3,10.6-8.1,19.2-9.4C256.7,72,265.3,64.7,277.3,64.7z"/>
<path class="st3" d="M252.7,95.9C252.7,95.9,252.7,95.9,252.7,95.9C252.4,96,252.5,95.9,252.7,95.9z"/>
<path class="st0" d="M277.3,118.7c-13.7,0-23-9.6-24.6-22.8c-1.3,0.7-5,2.9-5.1,2.9c-0.9,0.4-9.1,5.4-9.9,5.9
	c-0.4,0.3-0.9,0.5-1.3,0.6c5.4,17.4,21,28.9,40.9,28.9c24.9,0,43-17.8,43-42.6c0-3.5-0.4-6.8-1.1-10c-5,5-13,12.6-17.5,16.1
	C299.5,110,290.4,118.7,277.3,118.7z"/>
<path class="st3" d="M285.9,89.7C285.9,89.7,285.9,89.7,285.9,89.7C285.8,89.7,285.8,89.7,285.9,89.7z"/>
<path class="st3" d="M286,89.8c0.2,0,0.5,0.1,0.5,0C286.4,89.8,286.2,89.8,286,89.8z"/>
<path class="st3" d="M292.7,89.1C292,89.5,293.7,88.8,292.7,89.1L292.7,89.1z"/>
<path class="st3" d="M295.9,87.1c-0.1,0.1-0.2,0.1-0.3,0.2c0,0-0.1,0.1-0.1,0.1C295.6,87.4,296.5,86.8,295.9,87.1z"/>
<path class="st3" d="M253,95.7c0,0,0.1-0.1,0.1-0.1c0,0-0.3,0.1-0.5,0.2C252.8,95.8,252.8,95.8,253,95.7C253,95.7,253,95.7,253,95.7
	z"/>
<path class="st0" d="M295.7,87.3c0.1-0.1,0.2-0.1,0.3-0.2c0.6-0.4-0.3,0.3-0.4,0.3C295.6,87.4,295.6,87.4,295.7,87.3
	c-0.1,0.1-0.2,0.1-0.3,0.2c-0.4,0.3-0.8,0.6-1.3,0.8c-0.4,0.3-0.9,0.5-1.3,0.7c0,0-0.1,0-0.1,0c0.9-0.3-0.7,0.4,0,0c0,0,0,0,0,0
	c-0.5,0.2-1,0.3-1.5,0.5c-0.3,0.1-1.3,0.5-1.7,0.3c0,0,1.2-0.1,0.4-0.1c-0.2,0-0.5,0-0.7,0c-0.6,0-1.1,0-1.7,0c-0.5,0-1-0.1-1.5-0.1
	c-0.2,0-0.2,0-0.2,0c0,0,0,0,0,0c0,0,0.1,0,0.1,0c0.2,0,0.4,0.1,0.5,0c0,0-0.3,0-0.5,0c0,0-0.1,0-0.1,0c0,0-0.1,0,0,0
	c-0.2-0.1-0.4-0.1-0.6-0.1c-9-1.7-16.8-6.8-26.1-7.2c-2-0.1-3.8,0-5.6,0.3c-0.8,2.8-1.2,5.8-1.2,9c0,1.4,0.1,2.8,0.3,4.1
	c0,0,0,0,0,0c0.2-0.1,0.5-0.2,0.5-0.2c0,0-0.1,0-0.1,0.1c0.5-0.2,1-0.3,1.4-0.5c0.5-0.1,1-0.3,1.6-0.4c0.1,0,0.2,0,0.3-0.1
	c0,0-0.1,0-0.1,0c0.1,0,1.2-0.2,0.5-0.1c-0.1,0-0.2,0-0.4,0.1c0.4,0.1,1.2-0.1,1.4-0.1c0.6,0,1.1,0,1.7,0c0.6,0,1.1,0.1,1.7,0.1
	c0,0-0.1,0-0.1,0c-0.2,0-0.3,0-0.3,0c0,0,0.2,0,0.3,0c0.3,0,0.6,0.1,0.1,0c0,0,0,0,0,0c0.1,0,0.3,0.1,0.3,0.1
	c1.1,0.2,2.2,0.5,3.3,0.8c2.1,0.6,4.2,1.4,6.3,2.2c4.1,1.6,8.3,3.2,12.7,3.9c5.5,0.8,10.7,0.3,15.7-2.3c0.6-0.3,1.4-0.9,2.4-1.6
	c0.4-1.9,0.6-4,0.6-6.1c0-3.3-0.5-6.4-1.3-9.3c-1.6,1.6-2.9,2.8-3.3,3.2C297.1,86.1,296.2,86.7,295.7,87.3z"/>
<path class="st3" d="M253,95.7c-0.1,0-0.2,0.1-0.3,0.1c0,0,0,0,0,0c0,0,0,0,0,0.1C252.8,95.8,253,95.8,253,95.7
	C253,95.7,253,95.7,253,95.7z"/>
<path class="st3" d="M261,94.8C261.1,94.8,261.1,94.8,261,94.8c0.1,0,0.1,0,0.1,0C261.6,94.8,261.3,94.8,261,94.8z"/>
<path class="st3" d="M256.2,94.8c0,0,0.1,0,0.1,0c0.1,0,0.2,0,0.4-0.1C257.4,94.6,256.3,94.8,256.2,94.8z"/>
<path class="st0" d="M301,82.4c0.9,2.9,1.3,6,1.3,9.3c0,2.1-0.2,4.1-0.6,6.1c4.5-3.5,12.5-11.1,17.5-16.1c-1-4.6-2.6-8.8-4.9-12.5
	C313.1,70.5,305.5,78,301,82.4z"/>
<path class="st0" d="M247.6,98.8c0,0,3.8-2.2,5.1-2.9c0,0,0,0,0-0.1c-0.2,0.1-0.3,0.1,0,0c-0.2-1.3-0.3-2.7-0.3-4.1
	c0-3.2,0.4-6.2,1.2-9c-8.6,1.3-15,6.1-19.2,9.4c0,4.7,0.7,9.2,2,13.4c0.5-0.1,0.9-0.3,1.3-0.6C238.5,104.2,246.7,99.3,247.6,98.8z"
	/>
<g>
	<g>
		<polygon class="st2" points="422.4,134.2 436.2,55.4 409.7,55.4 410.9,47.8 472.3,47.8 471,55.4 444.3,55.4 430.5,134.2 		"/>
		<path class="st2" d="M471.4,48.5l-1.1,6.1h-26.7l-13.8,78.8h-6.6l13.8-78.8h-26.6l1-6.1H471.4 M473.2,47h-1.8h-59.9h-1.3l-0.2,1.3
			l-1,6.1l-0.3,1.7h1.8h24.8l-13.5,77.1l-0.3,1.8h1.8h6.6h1.3l0.2-1.2l13.6-77.6h25.4h1.3l0.2-1.2l1.1-6.1L473.2,47L473.2,47z
			 M471.4,50L471.4,50L471.4,50L471.4,50z"/>
	</g>
	<g>
		<polygon class="st2" points="469,134.2 484.1,47.8 533.9,47.8 532.7,55.4 490.7,55.4 485.2,86.8 524.1,86.8 522.8,94.4 
			483.9,94.4 478.3,126.6 520.7,126.6 519.4,134.2 		"/>
		<path class="st2" d="M533,48.5l-1,6.1h-42l-5.8,33h38.9l-1.1,6.1h-38.8l-5.9,33.7h42.5l-1.1,6.1h-48.9l14.9-84.9H533 M523.2,87.6
			L523.2,87.6 M519.8,127.4L519.8,127.4 M534.8,47H533h-48.3h-1.3l-0.2,1.2l-14.9,84.9l-0.3,1.8h1.8h48.9h1.3l0.2-1.2l1.1-6.1
			l0.3-1.8h-1.8h0h-40.7l5.4-30.7h37.6h1.3l0.2-1.2l1.1-6.1l0.3-1.8h-1.8h0h-37.1l5.3-30h40.7h1.3l0.2-1.3l1-6.1L534.8,47L534.8,47z
			 M533,50L533,50L533,50L533,50z"/>
	</g>
	<g>
		<polygon class="st2" points="591.1,134.2 554.1,62.7 541.6,134.2 533.6,134.2 548.8,47.8 555,47.8 592,119.2 604.6,47.8 
			612.5,47.8 597.4,134.2 		"/>
		<path class="st2" d="M611.6,48.5L611.6,48.5 M611.6,48.5l-14.9,84.9h-5.2l-37.7-73l-12.9,73h-6.4l14.9-84.9h5.1l37.8,73l12.9-73
			H611.6 M613.4,47h-1.8h-6.4H604l-0.2,1.2l-12.1,68.6l-35.8-69.1l-0.4-0.8h-0.9h-5.1h-1.3l-0.2,1.2L533,133.2l-0.3,1.8h1.8h6.4h1.3
			l0.2-1.2l12.1-68.6l35.7,69.1l0.4,0.8h0.9h5.2h1.3l0.2-1.2l14.9-84.9L613.4,47L613.4,47z M611.6,47L611.6,47L611.6,47L611.6,47z
			 M611.6,50L611.6,50L611.6,50L611.6,50z"/>
	</g>
	<g>
		<polygon class="st2" points="674.4,134.2 637.5,62.7 624.9,134.2 616.9,134.2 632.1,47.8 638.3,47.8 675.3,119.2 687.9,47.8 
			695.9,47.8 680.7,134.2 		"/>
		<path class="st2" d="M695,48.5L695,48.5 M695,48.5l-14.9,84.9h-5.2l-37.7-73l-12.9,73h-6.4l14.9-84.9h5.1l37.8,73l12.9-73H695
			 M696.8,47H695h-6.4h-1.3l-0.2,1.2L675,116.9l-35.8-69.1l-0.4-0.8h-0.9h-5.1h-1.3l-0.2,1.2l-14.9,84.9l-0.3,1.8h1.8h6.4h1.3
			l0.2-1.2l12.1-68.6l35.7,69.1l0.4,0.8h0.9h5.2h1.3l0.2-1.2l14.9-84.9L696.8,47L696.8,47z M695,47L695,47L695,47L695,47z M695,50
			L695,50L695,50L695,50z"/>
	</g>
	<g>
		<polygon class="st2" points="700.3,134.2 715.5,47.8 723.4,47.8 708.2,134.2 		"/>
		<path class="st2" d="M722.5,48.5l-14.9,84.9h-6.4l14.9-84.9H722.5 M724.3,47h-1.8h-6.4h-1.3l-0.2,1.2l-14.9,84.9l-0.3,1.8h1.8h6.4
			h1.3l0.2-1.2L724,48.8L724.3,47L724.3,47z M722.5,50L722.5,50L722.5,50L722.5,50z"/>
	</g>
	<g>
		<path class="st2" d="M753.8,135.5c-15.6,0-26.6-7.7-29.5-20.6l-0.1-0.6l7.1-3.6l0.2,1c2,10.4,10,16.1,22.6,16.1
			c12.6,0,21.3-5.6,23.3-14.9c2.3-11.2-8.4-15.1-18.8-18.9c-9.1-3.1-26-9-22.6-26.4c3-14.6,16.6-21.1,28.9-21.1
			c13,0,22.6,6.6,26.3,18.2l0.2,0.6l-7.1,3.6L784,68c-2.8-9.2-9.4-13.9-19.5-13.9c-10.5,0-18.7,5.8-20.5,14.3
			c-2.3,11.2,8.4,15.1,18.7,18.9c10.3,3.7,25.9,9.4,22.6,26.6C782.6,127.5,770.8,135.5,753.8,135.5z"/>
		<path class="st2" d="M764.9,47.2c14.6,0,22.6,8.1,25.6,17.7l-5.7,2.9c-2.4-7.9-8.1-14.4-20.3-14.4c-10.1,0-19.3,5.5-21.2,14.9
			c-2.4,11.8,8.6,15.9,19.2,19.8c11,4,25.2,9.5,22.1,25.7c-2.8,14.2-15.6,21-30.7,21c-15.5,0-26-7.5-28.7-20l5.7-2.9
			c1.9,10.1,9.6,16.7,23.3,16.7c13.3,0,22.1-6.2,24-15.5c2.4-11.8-8.6-15.9-19.3-19.8c-10.9-3.8-25.2-9.6-22.1-25.6
			C739.5,54,752.4,47.2,764.9,47.2 M764.9,45.7c-6.8,0-13.3,1.9-18.5,5.4c-5.9,3.9-9.7,9.6-11.1,16.3c-3.6,18.1,13.7,24.1,23.1,27.3
			c12.4,4.5,20.3,8.2,18.3,18c-1.9,9-10.3,14.3-22.5,14.3c-12.1,0-19.9-5.5-21.8-15.5l-0.4-2l-1.8,0.9l-5.7,2.9l-1,0.5l0.3,1.1
			c3,13.3,14.3,21.2,30.2,21.2c8,0,15.2-1.9,20.7-5.4c6.1-3.9,10-9.7,11.4-16.8c3.5-17.8-12.5-23.6-23-27.4
			c-12.3-4.5-20.2-8.2-18.2-18.1c1.7-8.2,9.6-13.7,19.8-13.7c9.8,0,16.1,4.5,18.8,13.4l0.5,1.7l1.6-0.8l5.7-2.9l1.1-0.6l-0.4-1.2
			C788.1,52.5,778.3,45.7,764.9,45.7L764.9,45.7z"/>
	</g>
</g>
</svg>
