<svg xmlns="http://www.w3.org/2000/svg" viewBox="0 0 738.44 88.55"><defs><style>.cls-1{fill:#404041;}.cls-2{fill:none;}.cls-3{fill:#6cbd45;}.cls-4{fill:#72a1d6;}</style></defs><title>logo</title><g id="Layer_2" data-name="Layer 2"><g id="Layer_1-2" data-name="Layer 1"><path class="cls-1" d="M62.46,15.17A2.81,2.81,0,0,1,59.66,18H42.34a2.81,2.81,0,0,0-2.8,2.8V84.05a2.81,2.81,0,0,1-2.8,2.8H25.6a2.81,2.81,0,0,1-2.8-2.8V20.76A2.81,2.81,0,0,0,20,18H2.8A2.81,2.81,0,0,1,0,15.17V4.75A2.81,2.81,0,0,1,2.8,2H59.66a2.81,2.81,0,0,1,2.8,2.8Z"/><path class="cls-1" d="M121.51,70.84a2.81,2.81,0,0,1,2.8,2.8V84.05a2.81,2.81,0,0,1-2.8,2.8H74.59a2.81,2.81,0,0,1-2.8-2.8V4.75A2.81,2.81,0,0,1,74.59,2H120.9a2.81,2.81,0,0,1,2.8,2.8V15.17A2.81,2.81,0,0,1,120.9,18H91.33a2.81,2.81,0,0,0-2.8,2.8V33.24a2.81,2.81,0,0,0,2.8,2.8h26.54a2.8,2.8,0,0,1,2.8,2.79V49a2.81,2.81,0,0,1-2.8,2.8H91.33a2.81,2.81,0,0,0-2.8,2.8V68.05a2.81,2.81,0,0,0,2.8,2.79Z"/><path class="cls-1" d="M179.58,70.84a2.81,2.81,0,0,1,2.8,2.8V84.05a2.81,2.81,0,0,1-2.8,2.8H136.06a2.81,2.81,0,0,1-2.8-2.8V4.75a2.81,2.81,0,0,1,2.8-2.8H147.2a2.81,2.81,0,0,1,2.8,2.8v63.3a2.81,2.81,0,0,0,2.8,2.79Z"/><path class="cls-1" d="M272.86,66.35l9.55-5.59a2.79,2.79,0,0,1,3.89,1.16c3.31,6.31,9,10.26,18.31,10.26,10.06,0,13.58-4.25,13.58-9,0-6.31-5.7-8.73-18.31-12.37-13-3.76-25.6-9.22-25.6-25.35S287.63.26,302.18.26c12.93,0,23.05,6.15,29,16.52a2.82,2.82,0,0,1-1,3.86L320.93,26a2.79,2.79,0,0,1-3.8-1c-3-5.09-7.48-8.46-14.95-8.46-7,0-11.16,3.64-11.16,8.49,0,5.21,3.28,8,16.13,11.88,13.47,4.25,27.78,8.74,27.78,26.08,0,15.89-12.74,25.59-30.81,25.59-16.29,0-27.34-7.39-32.44-18.74A2.74,2.74,0,0,1,272.86,66.35Z"/><path class="cls-2" d="M208.71,47.53l.33,0C208.89,47.53,208.74,47.5,208.71,47.53Z"/><path class="cls-3" d="M231.72,54.51c-4.43-.63-8.57-2.25-12.71-3.85-2.07-.8-4.14-1.58-6.27-2.2-1.09-.32-2.2-.6-3.31-.81l-.31-.07c-.56,0-1.11-.11-1.67-.13s-1.11,0-1.66,0a8.92,8.92,0,0,1-1.45.14l-.32.06c-.52.11-1,.24-1.55.39s-1,.31-1.44.48l-.36.2c1.64,13.18,10.9,22.8,24.64,22.8,13.08,0,22.2-8.73,24.47-20.94a18.58,18.58,0,0,1-2.39,1.64A25.46,25.46,0,0,1,231.72,54.51Z"/><path class="cls-4" d="M225.31,17.49c-12,0-20.61,7.29-23.67,18a29.6,29.6,0,0,1,5.56-.3c9.32.41,17.13,5.5,26.09,7.23a5,5,0,0,1,.55.14h.24c.49,0,1,.09,1.45.11s1.13,0,1.69,0c.24,0,.48,0,.72,0,.77,0-.46.07-.43.08.32.14,1.31-.24,1.65-.33.52-.14,1-.31,1.53-.48h0l.09,0c.45-.23.89-.45,1.33-.71s.85-.52,1.27-.81l.26-.18a18.85,18.85,0,0,1,2.05-1.74c.38-.36,1.63-1.57,3.28-3.18C245.84,24.66,237.22,17.49,225.31,17.49Z"/><path class="cls-2" d="M233.89,42.55h0Z"/><path class="cls-2" d="M200.67,48.65Z"/><path class="cls-1" d="M225.31,17.49c11.91,0,20.53,7.17,23.69,17.7,4.53-4.41,12.09-11.86,13.39-13.22C255.1,9.66,241.69,2,225.31,2c-24.8,0-42.93,17.76-42.93,42.56,0,.1,0,.2,0,.31,4.19-3.26,10.6-8.09,19.24-9.35C204.7,24.78,213.29,17.49,225.31,17.49Z"/><path class="cls-4" d="M200.67,48.65Z"/><path class="cls-1" d="M225.31,71.52c-13.74,0-23-9.62-24.64-22.8-1.3.75-5,2.89-5.06,2.9-.89.44-9.07,5.39-9.89,6a5,5,0,0,1-1.31.61c5.36,17.39,21,28.88,40.9,28.88,24.91,0,43-17.76,43-42.55a47,47,0,0,0-1.08-10c-5,5-12.95,12.57-17.49,16.07C247.51,62.79,238.39,71.52,225.31,71.52Z"/><path class="cls-4" d="M233.89,42.55h0Z"/><path class="cls-4" d="M234,42.56l.51,0A1.42,1.42,0,0,1,234,42.56Z"/><path class="cls-4" d="M240.72,41.86c-.72.4.95-.31,0,0Z"/><path class="cls-4" d="M243.94,39.92l-.27.19-.11.11S244.5,39.56,243.94,39.92Z"/><path class="cls-4" d="M201,48.52l.13-.07a2.73,2.73,0,0,1-.47.19l.27-.09Z"/><path class="cls-1" d="M243.67,40.11l.27-.19c.56-.36-.35.26-.38.3l.11-.11-.26.18c-.42.29-.84.56-1.27.81s-.88.48-1.33.71l-.09,0c.95-.31-.72.4,0,0h0c-.51.17-1,.34-1.53.48-.34.09-1.33.47-1.65.33,0,0,1.2-.07.43-.08-.24,0-.48,0-.72,0-.56,0-1.12,0-1.69,0s-1-.08-1.45-.11H234a1.42,1.42,0,0,0,.51,0l-.51,0h-.15a5,5,0,0,0-.55-.14c-9-1.73-16.77-6.82-26.09-7.23a29.6,29.6,0,0,0-5.56.3,32.48,32.48,0,0,0-1.25,9,33,33,0,0,0,.28,4.14h0a2.73,2.73,0,0,0,.47-.19l-.13.07c.48-.17,1-.34,1.44-.48s1-.28,1.55-.39l.32-.06h-.15c.06,0,1.18-.22.51-.06l-.36.07a8.92,8.92,0,0,0,1.45-.14c.55,0,1.1,0,1.66,0s1.11.08,1.67.13l-.08,0-.33,0s.18,0,.33,0,.58.06.1,0h0l.31.07c1.11.21,2.22.49,3.31.81,2.13.62,4.2,1.4,6.27,2.2,4.14,1.6,8.28,3.22,12.71,3.85a25.46,25.46,0,0,0,15.67-2.29,18.58,18.58,0,0,0,2.39-1.64,33.25,33.25,0,0,0,.56-6.07A32.59,32.59,0,0,0,249,35.19c-1.65,1.61-2.9,2.82-3.28,3.18A18.85,18.85,0,0,0,243.67,40.11Z"/><path class="cls-4" d="M201,48.55l-.27.09h0v.07l.36-.2Z"/><path class="cls-4" d="M209,47.56l.08,0h0C209.62,47.62,209.32,47.59,209,47.56Z"/><path class="cls-4" d="M204.19,47.58h.15l.36-.07C205.37,47.36,204.25,47.6,204.19,47.58Z"/><path class="cls-1" d="M249,35.19a32.59,32.59,0,0,1,1.34,9.32,33.25,33.25,0,0,1-.56,6.07c4.54-3.5,12.49-11.1,17.49-16.07A41.69,41.69,0,0,0,262.39,22C261.09,23.33,253.53,30.78,249,35.19Z"/><path class="cls-1" d="M195.61,51.62s3.76-2.15,5.06-2.9v-.07h0a33,33,0,0,1-.28-4.14,32.48,32.48,0,0,1,1.25-9c-8.64,1.26-15,6.09-19.24,9.35a46.13,46.13,0,0,0,2,13.36,5,5,0,0,0,1.31-.61C186.54,57,194.72,52.06,195.61,51.62Z"/><path class="cls-3" d="M418.33,7.4H391.65L377.82,86.24h-6.55L385.1,7.4H358.54l1-6.07h59.91Z"/><path class="cls-3" d="M438.11,7.4l-5.82,33h38.93l-1.09,6.06H431.32l-5.95,33.72h42.45l-1.09,6.07H417.85L432.77,1.33H481l-1,6.07Z"/><path class="cls-3" d="M497.42,1.33h5.1l37.84,73,12.86-73h6.42L544.73,86.24h-5.22l-37.72-73-12.85,73h-6.43Z"/><path class="cls-3" d="M580.76,1.33h5.09l37.85,73,12.85-73H643L628.06,86.24h-5.22l-37.71-73-12.86,73h-6.43Z"/><path class="cls-3" d="M670.52,1.33,655.6,86.24h-6.42L664.09,1.33Z"/><path class="cls-3" d="M673.07,67.56l5.7-2.91c1.94,10.07,9.58,16.74,23.29,16.74,13.34,0,22.07-6.19,24-15.53,2.43-11.77-8.61-15.89-19.28-19.77-10.92-3.76-25.23-9.58-22.08-25.59C687.5,6.79,700.36,0,712.85,0c14.56,0,22.56,8.13,25.59,17.71l-5.7,2.91c-2.42-7.88-8.12-14.43-20.25-14.43-10.07,0-19.28,5.46-21.23,14.92-2.42,11.76,8.62,15.88,19.17,19.77,11,4,25.23,9.46,22.07,25.71-2.79,14.19-15.64,21-30.68,21C686.29,87.57,675.86,80.05,673.07,67.56Z"/></g></g></svg>